<svg version="1.2" baseProfile="tiny" viewBox="0 0 12.833 14.0" xmlns:xlink="http://www.w3.org/1999/xlink" xmlns="http://www.w3.org/2000/svg">
<path style="fill:#ffffff;" d="M0.207,6.379L5.827,0.253C6.161,-0.084,6.7031,-0.084,7.0069,0.253L12.6231,6.379C13.0909,6.8769,12.726,7.7,12.0359,7.7L9.809,7.7L9.809,7.7L7.952,5.679C7.581,5.258,7.018,5.006,6.4289,5.006C5.863,5.006,5.309,5.241,4.91,5.649L3.024,7.7L0.832,7.7L0.832,7.7C0.105,7.7,-0.257,6.8769,0.207,6.379M7.0069,6.547C6.856,6.375,6.6451,6.2901,6.4289,6.2901C6.214,6.2901,5.996,6.376,5.827,6.547L0.207,12.6601C-0.257,13.175,0.105,14.0,0.832,14.0L12.0359,14.0C12.726,14.0,13.092,13.1711,12.624,12.6601L7.0069,6.547Z"/>
</svg>